#!OML:ASF Y:\EmotionMaleHayes\Project 1\Capture day 1\Session 1\Male1.ASF
:FULLY-SPECIFIED
:DEGREES
503
root -16.3252 17.0167 -18.2928 433.056 77.6716 437.913
lowerback 7.02288 -1.07766 -16.0397
upperback 1.27323 -2.5232 -3.61383
thorax -2.05968 -1.08169 5.33152
lowerneck -22.3418 2.60883 3.25248
upperneck 19.645 2.20097 1.52768
head 9.96094 1.47583 0.338811
rclavicle 2.54693e-015 -7.07673e-014
rhumerus -44.7764 4.91945 -87.0362
rradius 33.5851
rwrist 2.55135
rhand -8.19243 -31.727
rfingers 7.12502
rthumb 17.7237 -60.9392
lclavicle 2.54693e-015 -7.07673e-014
lhumerus -20.6329 -20.8194 88.6517
lradius 35.8575
lwrist -3.10393
lhand -16.3114 -23.3073
lfingers 7.12502
lthumb 9.8997 6.43991
rfemur -18.6127 1.4455 6.05741
rtibia 42.1714
rfoot -15.1836 0.793395
rtoes 4.71434
lfemur 13.8658 9.1612 -34.447
ltibia 2.22257
lfoot -11.9646 -1.42739
ltoes -4.01688
504
root -16.2382 17.0144 -18.3024 434.943 77.7012 439.66
lowerback 6.97002 -1.19193 -16.192
upperback 1.29901 -2.6698 -3.53468
thorax -1.95991 -1.16203 5.50505
lowerneck -22.3726 2.56763 3.26244
upperneck 19.6159 2.17012 1.39442
head 9.95714 1.44507 0.285497
rclavicle -1.38839e-014 -5.64548e-014
rhumerus -45.1766 4.40543 -86.6795
rradius 33.5827
rwrist 2.60894
rhand -8.15705 -31.7922
rfingers 7.12502
rthumb 17.7577 -61.0013
lclavicle -1.38839e-014 -5.64548e-014
lhumerus -20.1183 -21.1815 88.8047
lradius 35.95
lwrist -3.05589
lhand -15.867 -23.4668
lfingers 7.12502
lthumb 10.3284 6.25955
rfemur -19.091 1.23748 6.08874
rtibia 40.548
rfoot -15.1996 0.378241
rtoes 5.13369
lfemur 14.0241 8.56638 -34.7301
ltibia 2.03469
lfoot -11.971 -1.22937
ltoes -3.16363
505
root -16.1495 17.0111 -18.3141 436.44 77.7576 440.96
lowerback 6.61436 -1.35653 -16.2475
upperback 1.49535 -2.79077 -3.45873
thorax -1.51417 -1.26416 5.60493
lowerneck -22.5696 2.67284 3.20204
upperneck 19.5287 2.31228 1.44656
head 9.96076 1.51022 0.336592
rclavicle -1.06226e-014 3.89618e-014
rhumerus -45.369 4.0384 -86.4086
rradius 33.7765
rwrist 2.54687
rhand -8.02176 -31.8952
rfingers 7.12502
rthumb 17.8879 -61.0925
lclavicle -1.06226e-014 3.89618e-014
lhumerus -19.3984 -21.4566 88.7614
lradius 36.2129
lwrist -3.12367
lhand -15.5673 -23.3854
lfingers 7.12502
lthumb 10.6176 6.32638
rfemur -19.6266 0.912114 6.1939
rtibia 38.8244
rfoot -14.9362 0.000982347
rtoes 5.40011
lfemur 14.1933 8.26949 -34.8612
ltibia 1.89508
lfoot -11.92 -1.21094
ltoes -1.65371
506
root -16.0573 17.0065 -18.3226 437.512 77.8527 441.856
lowerback 6.92608 -1.35619 -16.2591
upperback 1.19939 -2.89836 -3.3624
thorax -1.982 -1.27128 5.73974
lowerneck -22.4472 2.63668 3.2376
upperneck 19.7853 2.28015 1.35351
head 10.0321 1.49116 0.294414
rclavicle 3.47438e-014 -1.59028e-014
rhumerus -46.3788 3.48256 -86.0758
rradius 33.9669
rwrist 2.64881
rhand -8.01991 -31.7705
rfingers 7.12502
rthumb 17.8897 -60.9676
lclavicle 3.47438e-014 -1.59028e-014
lhumerus -19.5587 -21.9824 89.1635
lradius 36.5464
lwrist -3.02494
lhand -15.4004 -23.2598
lfingers 7.12502
lthumb 10.7786 6.44365
rfemur -20.064 0.704738 6.42409
rtibia 36.9877
rfoot -14.6192 -0.407513
rtoes 6.70447
lfemur 14.4094 8.20297 -34.8129
ltibia 1.8417
lfoot -11.9211 -1.34693
ltoes -0.81257
507
root -15.96 17.0051 -18.3357 437.572 77.8323 441.891
lowerback 6.38601 -1.41927 -16.2846
upperback 1.53239 -2.82514 -3.38143
thorax -1.33207 -1.29771 5.69901
lowerneck -22.5418 2.67704 3.59927
upperneck 19.626 2.28913 1.01522
head 10.0014 1.47818 0.116789
rclavicle 2.65129e-014 5.84427e-014
rhumerus -46.3377 2.95017 -85.9343
rradius 33.7741
rwrist 2.78092
rhand -8.27468 -31.4397
rfingers 7.12502
rthumb 17.6445 -60.6591
lclavicle 2.65129e-014 5.84427e-014
lhumerus -18.7221 -22.4844 89.0077
lradius 36.702
lwrist -2.72177
lhand -15.2651 -23.3793
lfingers 7.12502
lthumb 10.9091 6.31729
rfemur -20.3041 0.614655 6.59891
rtibia 35.1869
rfoot -14.3469 -0.762783
rtoes 8.19781
lfemur 14.7779 8.2744 -34.8543
ltibia 1.79333
lfoot -11.9939 -1.41123
ltoes -1.22588
